<?xml version="1.0" encoding="utf-8"?>
<!-- Generator: Adobe Illustrator 22.1.0, SVG Export Plug-In . SVG Version: 6.00 Build 0)  -->
<svg version="1.1" id="Layer_1" xmlns="http://www.w3.org/2000/svg" xmlns:xlink="http://www.w3.org/1999/xlink" x="0px" y="0px"
	 viewBox="0 0 168.6 53.5" style="enable-background:new 0 0 168.6 53.5;" xml:space="preserve">
<style type="text/css">
	.st0{fill:#0E4C92;}
	.st1{fill:#C5343A;}
	.st2{fill:#7B7B7D;}
</style>
<g>
	<g>
		<g>
			<g>
				<path class="st0" d="M127.6,6.3l-6.2,5.5c-2.7-2.3-6.3-3.4-9.9-2.5c-3.4,0.8-6.5,4.2-7.2,7.6c-0.8,4.4,0.8,8.3,4.4,10.8
					c2.3,1.5,5.4,1.9,8.2,1.3c1.7-0.4,3.1-1.4,4.5-2.6l7.1,4.3c-0.8,1.4-2.6,3.3-4.1,4.1c-5.8,3.8-14.9,3.9-20.5-0.2
					c-5.7-4.1-8.7-10.2-8.2-17.3c0.6-6,4.3-11.9,9.9-14.8C112.6-1.2,122.3,0.3,127.6,6.3"/>
				<path class="st0" d="M94.2,6.3L88,11.8c-2.7-2.3-6.3-3.4-9.9-2.5c-3.4,0.8-6.5,4.3-7.2,7.6c-0.8,4.4,0.8,8.3,4.4,10.8
					c2.3,1.5,5.4,1.9,8.2,1.3c1.7-0.4,3.1-1.4,4.5-2.6l7.1,4.3c-0.8,1.4-2.6,3.3-4.1,4c-5.8,3.8-14.9,3.9-20.5-0.2
					c-5.7-4.1-8.7-10.2-8.2-17.3c0.6-6.1,4.3-11.9,10-14.8C79.2-1.2,88.9,0.3,94.2,6.3"/>
				<path class="st0" d="M14,0.6c4.9,0,9.4,1,12.5,5.6c2.3,4.6,1.9,11.6-1.3,15.7c-3.8,4.1-10.1,3.4-15.6,3.5l0,12.2l-9.3,0V0.6
					L14,0.6z M9.7,8.4v9c2.7-0.1,6.3,0.6,7.9-2c0.7-1.3,0.5-3.3,0.1-4.7C16.3,7.5,12.6,8.6,9.7,8.4"/>
				<path class="st0" d="M168.4,37.5l-10.1,0l-2.7-6.3h-13.1l-2.2,6.3h-10l13.3-36.9l10.5,0L168.4,37.5z M153.2,23.3l-4.3-11.4
					l-3.7,11.4L153.2,23.3z"/>
			</g>
			<g>
				<polygon class="st0" points="45.3,37.5 35.2,37.5 54.7,0.6 64.8,0.6 				"/>
				<polygon class="st1" points="27,0.6 51.6,0.6 39.3,23.9 				"/>
			</g>
		</g>
	</g>
	<g>
		<path class="st2" d="M32.5,45.3h-2.7v-0.7H36v0.7h-2.7v7.1h-0.8V45.3z"/>
		<path class="st2" d="M39,44.6h0.8v7.8H39V44.6z"/>
		<path class="st2" d="M49.5,51.6v0.7H44v-7.8h5.3v0.7h-4.5V48h4v0.7h-4v2.9H49.5z"/>
		<path class="st2" d="M59.6,44.6v7.8h-0.7l-5-6.3v6.3h-0.8v-7.8h0.7l5,6.3v-6.3H59.6z"/>
		<path class="st2" d="M63.8,44.6H67c2.5,0,4.2,1.6,4.2,3.9s-1.7,3.9-4.2,3.9h-3.2V44.6z M66.9,51.6c2.1,0,3.4-1.3,3.4-3.2
			s-1.3-3.2-3.4-3.2h-2.3v6.3H66.9z"/>
		<path class="st2" d="M79.4,50.3h-4.3l-0.9,2.1h-0.9l3.5-7.8h0.8l3.5,7.8h-0.9L79.4,50.3z M79.1,49.6l-1.9-4.2l-1.9,4.2H79.1z"/>
		<path class="st2" d="M88,48.4c0-2.3,1.7-3.9,4.1-3.9c2.3,0,4.1,1.7,4.1,3.9s-1.7,3.9-4.1,3.9C89.7,52.4,88,50.7,88,48.4z
			 M95.3,48.4c0-1.9-1.4-3.2-3.2-3.2c-1.9,0-3.3,1.4-3.3,3.2s1.4,3.2,3.3,3.2C94,51.7,95.3,50.3,95.3,48.4z"/>
		<path class="st2" d="M106.2,44.6v7.8h-0.7l-5-6.3v6.3h-0.8v-7.8h0.7l5,6.3v-6.3H106.2z"/>
		<path class="st2" d="M110.4,44.6h0.8v7.1h4.3v0.7h-5.2V44.6z"/>
		<path class="st2" d="M118.6,44.6h0.8v7.8h-0.8V44.6z"/>
		<path class="st2" d="M130.1,44.6v7.8h-0.7l-5-6.3v6.3h-0.8v-7.8h0.7l5,6.3v-6.3H130.1z"/>
		<path class="st2" d="M139.7,51.6v0.7h-5.5v-7.8h5.3v0.7h-4.5V48h4v0.7h-4v2.9H139.7z"/>
	</g>
</g>
</svg>
