<?xml version="1.0" encoding="UTF-8"?>
<svg xmlns="http://www.w3.org/2000/svg" 
  xmlns:xlink="http://www.w3.org/1999/xlink" 
  viewBox="0 0 240 240" 
  width="240px" 
  height="240px">
<g id="surface5185212">
<path style=" stroke:none;fill-rule:nonzero;fill:rgb(98.823529%,63.921571%,6.666667%);fill-opacity:1;" d="M 119.875 7.890625 C 115.460938 7.960938 111.941406 11.585938 112 16 L 112 40 C 111.960938 42.886719 113.476562 45.570312 115.96875 47.023438 C 118.457031 48.476562 121.542969 48.476562 124.03125 47.023438 C 126.523438 45.570312 128.039062 42.886719 128 40 L 128 16 C 128.03125 13.835938 127.183594 11.753906 125.652344 10.226562 C 124.121094 8.699219 122.039062 7.855469 119.875 7.890625 Z M 46.375 38.390625 C 43.121094 38.398438 40.199219 40.375 38.976562 43.386719 C 37.757812 46.402344 38.480469 49.855469 40.8125 52.125 L 57.78125 69.09375 C 59.789062 71.183594 62.765625 72.027344 65.570312 71.292969 C 68.375 70.5625 70.5625 68.375 71.292969 65.570312 C 72.027344 62.765625 71.183594 59.789062 69.09375 57.78125 L 52.125 40.8125 C 50.613281 39.261719 48.539062 38.386719 46.375 38.390625 Z M 193.375 38.390625 C 191.296875 38.453125 189.324219 39.320312 187.875 40.8125 L 170.90625 57.78125 C 168.816406 59.789062 167.972656 62.765625 168.707031 65.570312 C 169.4375 68.375 171.625 70.5625 174.429688 71.292969 C 177.234375 72.027344 180.210938 71.183594 182.21875 69.09375 L 199.1875 52.125 C 201.554688 49.824219 202.265625 46.308594 200.980469 43.269531 C 199.691406 40.230469 196.671875 38.292969 193.375 38.390625 Z M 120 64 C 89.070312 64 64 89.070312 64 120 C 64 150.929688 89.070312 176 120 176 C 150.929688 176 176 150.929688 176 120 C 176 89.070312 150.929688 64 120 64 Z M 16 112 C 13.113281 111.960938 10.429688 113.476562 8.976562 115.96875 C 7.523438 118.457031 7.523438 121.542969 8.976562 124.03125 C 10.429688 126.523438 13.113281 128.039062 16 128 L 40 128 C 42.886719 128.039062 45.570312 126.523438 47.023438 124.03125 C 48.476562 121.542969 48.476562 118.457031 47.023438 115.96875 C 45.570312 113.476562 42.886719 111.960938 40 112 Z M 200 112 C 197.113281 111.960938 194.429688 113.476562 192.976562 115.96875 C 191.523438 118.457031 191.523438 121.542969 192.976562 124.03125 C 194.429688 126.523438 197.113281 128.039062 200 128 L 224 128 C 226.886719 128.039062 229.570312 126.523438 231.023438 124.03125 C 232.476562 121.542969 232.476562 118.457031 231.023438 115.96875 C 229.570312 113.476562 226.886719 111.960938 224 112 Z M 63.28125 168.484375 C 61.203125 168.546875 59.230469 169.414062 57.78125 170.90625 L 40.8125 187.875 C 38.722656 189.882812 37.878906 192.859375 38.613281 195.664062 C 39.34375 198.46875 41.53125 200.65625 44.335938 201.386719 C 47.140625 202.121094 50.117188 201.277344 52.125 199.1875 L 69.09375 182.21875 C 71.460938 179.917969 72.171875 176.402344 70.886719 173.363281 C 69.597656 170.324219 66.578125 168.386719 63.28125 168.484375 Z M 176.484375 168.484375 C 173.230469 168.484375 170.296875 170.457031 169.074219 173.472656 C 167.847656 176.492188 168.574219 179.949219 170.90625 182.21875 L 187.875 199.1875 C 189.882812 201.277344 192.859375 202.117188 195.664062 201.386719 C 198.46875 200.65625 200.65625 198.46875 201.386719 195.664062 C 202.117188 192.859375 201.277344 189.882812 199.1875 187.875 L 182.21875 170.90625 C 180.710938 169.359375 178.644531 168.484375 176.484375 168.484375 Z M 119.875 191.890625 C 115.460938 191.960938 111.941406 195.585938 112 200 L 112 224 C 111.960938 226.886719 113.476562 229.570312 115.96875 231.023438 C 118.457031 232.476562 121.542969 232.476562 124.03125 231.023438 C 126.523438 229.570312 128.039062 226.886719 128 224 L 128 200 C 128.03125 197.835938 127.183594 195.753906 125.652344 194.226562 C 124.121094 192.699219 122.039062 191.855469 119.875 191.890625 Z M 119.875 191.890625 "/>
</g>
</svg>
